<?xml version="1.0" encoding="UTF-8" standalone="no"?>
<svg width="1076px" height="871px" viewBox="0 0 1076 871" version="1.1" xmlns="http://www.w3.org/2000/svg" xmlns:xlink="http://www.w3.org/1999/xlink">
    <!-- Generator: Sketch 40.3 (33839) - http://www.bohemiancoding.com/sketch -->
    <title>Group 4</title>
    <desc>Created with Sketch.</desc>
    <defs></defs>
    <g id="Page-1" stroke="none" stroke-width="1" fill="none" fill-rule="evenodd">
        <g id="Group-4" fill="#000000">
            <path d="M65.31,0.88 C65.31,0.44 64.87,0 64.21,0 L20.1,0 C19.44,0 19,0.44 19,0.88 L19,12.32 C19,12.76 19.44,13.2 20.1,13.2 L34.84,13.2 L34.84,76.12 C34.84,76.56 35.28,77 35.94,77 L48.37,77 C49.03,77 49.47,76.56 49.47,76.12 L49.47,13.2 L64.21,13.2 C64.87,13.2 65.31,12.76 65.31,12.32 L65.31,0.88 Z" id="TIMETRACKER"></path>
            <path d="M869.31,0.88 C869.31,0.44 868.87,0 868.21,0 L824.1,0 C823.44,0 823,0.44 823,0.88 L823,12.32 C823,12.76 823.44,13.2 824.1,13.2 L838.84,13.2 L838.84,76.12 C838.84,76.56 839.28,77 839.94,77 L852.37,77 C853.03,77 853.47,76.56 853.47,76.12 L853.47,13.2 L868.21,13.2 C868.87,13.2 869.31,12.76 869.31,12.32 L869.31,0.88 Z" id="Path"></path>
            <path d="M261.91,212.2 C262.57,212.2 263.01,211.76 263.01,211.32 L263.01,199.88 C263.01,199.44 262.57,199 261.91,199 L232.54,199 C231.88,199 231.44,199.44 231.44,199.88 L231.44,211.32 C231.44,211.76 231.88,212.2 232.54,212.2 L239.91,212.2 L239.91,262.8 L232.1,262.8 C231.44,262.8 231,263.24 231,263.68 L231,275.12 C231,275.56 231.44,276 232.1,276 L262.35,276 C263.01,276 263.45,275.56 263.45,275.12 L263.45,263.68 C263.45,263.24 263.01,262.8 262.35,262.8 L254.65,262.8 L254.65,212.2 L261.91,212.2 Z" id="Path"></path>
            <path d="M83.71,414.88 C83.71,414.44 83.27,414 82.61,414 L69.85,414 C69.52,414 68.97,414.33 68.86,414.55 L42.46,471.09 L14.85,414.55 C14.74,414.33 14.19,414 13.86,414 L0.99,414 C0.33,414 0,414.44 0,414.88 L0,490.23 C0,490.67 0.33,491.11 0.99,491.11 L13.64,491.11 C14.3,491.11 14.74,490.67 14.74,490.23 L14.74,447 L35.64,487.48 C35.75,487.7 36.3,488.03 36.63,488.03 L48.51,488.03 C48.73,488.03 49.28,487.7 49.39,487.48 L68.97,447.99 L68.97,490.23 C68.97,490.67 69.41,491.11 70.07,491.11 L82.61,491.11 C83.27,491.11 83.71,490.67 83.71,490.23 L83.71,414.88 Z" id="Path"></path>
            <path d="M271.27,649.97 C271.93,649.97 272.37,649.53 272.37,649.09 L272.37,636.88 C272.37,636.44 271.93,636 271.27,636 L222.1,636 C221.44,636 221,636.44 221,636.88 L221,712.12 C221,712.56 221.44,713 222.1,713 L272.26,713 C272.92,713 273.36,712.56 273.36,712.12 L273.36,699.58 C273.36,699.14 272.92,698.7 272.26,698.7 L235.74,698.7 L235.74,681.32 L265.99,681.32 C266.54,681.32 266.98,680.88 266.98,680.44 L266.98,668.23 C266.98,667.79 266.54,667.35 265.99,667.35 L235.74,667.35 L235.74,649.97 L271.27,649.97 Z" id="Path"></path>
            <path d="M1059.74957,276.6775 C1059.85957,277.0075 1060.29957,277.2275 1060.62957,277.2275 L1074.26957,277.2275 C1075.03957,277.2275 1075.47957,276.6775 1075.14957,276.0175 L1045.11957,198.5775 C1044.78957,197.8075 1043.46957,197.8075 1043.13957,198.5775 L1013.10957,276.0175 C1012.77957,276.6775 1013.21957,277.2275 1014.09957,277.2275 L1027.62957,277.2275 C1028.06957,277.2275 1028.50957,277.0075 1028.61957,276.6775 L1031.58957,268.5375 L1056.55957,268.5375 L1059.74957,276.6775 Z M1044.12957,232.4575 L1051.82957,255.5575 L1036.31957,255.5575 L1044.12957,232.4575 Z" id="Combined-Shape"></path>
            <path d="M851.83,477.9 C838.63,477.9 827.96,468.22 827.96,452.6 C827.96,437.97 836.98,427.3 851.83,427.3 C858.43,427.3 864.37,430.05 868.77,434.45 C869.21,434.78 869.87,434.78 870.31,434.45 L879.11,425.65 C879.55,425.32 879.55,424.66 879.11,424.33 C872.29,417.29 862.61,413 851.83,413 C829.17,413 813,429.39 813,452.6 C813,476.8 830.49,492.2 851.83,492.2 C862.61,492.2 872.29,487.91 879.11,480.98 C879.55,480.65 879.55,479.99 879.11,479.66 L870.31,470.75 C869.87,470.42 869.21,470.42 868.77,470.75 C864.37,475.15 858.43,477.9 851.83,477.9 L851.83,477.9 Z" id="Path"></path>
            <path d="M1074.16,542.43 C1074.82,541.77 1074.27,541 1073.28,541 L1057.55,541 C1057.33,541 1056.78,541.22 1056.67,541.33 L1027.74,576.86 L1027.74,541.88 C1027.74,541.44 1027.3,541 1026.75,541 L1014.1,541 C1013.44,541 1013,541.44 1013,541.88 L1013,617.12 C1013,617.56 1013.44,618 1014.1,618 L1026.75,618 C1027.3,618 1027.74,617.56 1027.74,617.12 L1027.74,596.66 C1029.83,594.57 1031.81,592.04 1033.68,589.95 L1056.12,617.67 C1056.23,617.78 1056.78,618 1057,618 L1073.5,618 C1074.49,618 1075.04,617.23 1074.38,616.57 L1043.47,580.16 L1074.16,542.43 Z" id="Path"></path>
            <path d="M870.27,639.97 C870.93,639.97 871.37,639.53 871.37,639.09 L871.37,626.88 C871.37,626.44 870.93,626 870.27,626 L821.1,626 C820.44,626 820,626.44 820,626.88 L820,702.12 C820,702.56 820.44,703 821.1,703 L871.26,703 C871.92,703 872.36,702.56 872.36,702.12 L872.36,689.58 C872.36,689.14 871.92,688.7 871.26,688.7 L834.74,688.7 L834.74,671.32 L864.99,671.32 C865.54,671.32 865.98,670.88 865.98,670.44 L865.98,658.23 C865.98,657.79 865.54,657.35 864.99,657.35 L834.74,657.35 L834.74,639.97 L870.27,639.97 Z" id="Path"></path>
            <path d="M1071.22,871 C1071.99,871 1072.43,870.34 1071.99,869.68 L1052.19,838 C1059.67,835.69 1068.36,830.3 1068.36,816.77 C1068.36,794 1042.18,794 1042.18,794 L1017.1,794 C1016.44,794 1016,794.44 1016,794.88 L1016,807.53 C1019.74,813.36 1023.59,819.52 1027.33,825.35 L1017.1,825.35 C1016.44,825.35 1016,825.79 1016,826.23 L1016,870.12 C1016,870.56 1016.44,871 1017.1,871 L1029.64,871 C1030.3,871 1030.74,870.56 1030.74,870.12 L1030.74,839.65 L1036.13,839.65 L1055.49,870.56 C1055.6,870.78 1056.15,871 1056.48,871 L1071.22,871 Z M1032.94,808.3 L1042.18,808.3 C1044.71,808.3 1053.62,808.3 1053.62,816.77 C1053.62,823.37 1047.79,825.13 1043.61,825.24 L1032.94,808.3 Z" id="Combined-Shape"></path>
            <path d="M873.22,276 C873.99,276 874.43,275.34 873.99,274.68 L854.19,243 C861.67,240.69 870.36,235.3 870.36,221.77 C870.36,199 844.18,199 844.18,199 L819.1,199 C818.44,199 818,199.44 818,199.88 L818,212.53 C821.74,218.36 825.59,224.52 829.33,230.35 L819.1,230.35 C818.44,230.35 818,230.79 818,231.23 L818,275.12 C818,275.56 818.44,276 819.1,276 L831.64,276 C832.3,276 832.74,275.56 832.74,275.12 L832.74,244.65 L838.13,244.65 L857.49,275.56 C857.6,275.78 858.15,276 858.48,276 L873.22,276 Z M834.94,213.3 L844.18,213.3 C846.71,213.3 855.62,213.3 855.62,221.77 C855.62,228.37 849.79,230.13 845.61,230.24 L834.94,213.3 Z" id="Combined-Shape"></path>
        </g>
    </g>
</svg>