<?xml version="1.0" encoding="UTF-8" standalone="no"?>
<svg width="46px" height="96px" viewBox="0 0 46 96" version="1.1" xmlns="http://www.w3.org/2000/svg" xmlns:xlink="http://www.w3.org/1999/xlink">
    <!-- Generator: Sketch 40.3 (33839) - http://www.bohemiancoding.com/sketch -->
    <title>Combined Shape</title>
    <desc>Created with Sketch.</desc>
    <defs></defs>
    <g id="Page-1" stroke="none" stroke-width="1" fill="none" fill-rule="evenodd">
        <g id="Desktop-HD" transform="translate(-146.000000, -99.000000)" fill="#FFFFFF">
            <path d="M170.152829,173.830017 C170.449869,173.830017 170.715352,174.069351 170.775034,174.334667 L176.467717,194.101268 C176.557812,194.397258 176.407692,194.606718 176.08264,194.606718 L174.214311,194.606718 C173.918758,194.606718 173.799165,194.397258 173.711013,194.101268 L172.406578,189.561139 L165.410146,189.561139 L164.074841,194.101268 C163.986461,194.397258 163.837484,194.606718 163.511633,194.606718 L161.733398,194.606718 C161.436016,194.606718 161.346721,194.426903 161.436016,194.131256 L167.484277,174.364884 C167.5738,174.069351 167.8115,173.830017 168.108197,173.830017 L170.152829,173.830017 Z M165.942828,187.423161 L171.841769,187.423161 L169.026526,177.214454 L165.942828,187.423161 Z M149.432973,173.83004 C149.72864,173.83004 149.936271,174.039385 149.936271,174.33469 L149.936271,192.230917 L158.534634,192.230917 C158.830073,192.230917 159.03919,192.44072 159.03919,192.736597 L159.03919,194.101176 C159.03919,194.397281 158.830073,194.606741 158.534634,194.606741 L147.921594,194.606741 C147.624326,194.606741 147.416696,194.397281 147.416696,194.101176 L147.416696,174.33469 C147.416696,174.039385 147.624326,173.83004 147.921594,173.83004 L149.432973,173.83004 Z M148.959562,108.69274 L156.280817,108.69274 L156.280817,100.233423 C156.280817,99.9369743 156.48879,99.7291169 156.784229,99.7291169 L158.297094,99.7291169 C158.622603,99.7291169 158.801649,99.9369743 158.801649,100.233423 L158.801649,119.999337 C158.801649,120.296816 158.622603,120.504673 158.297094,120.504673 L156.784229,120.504673 C156.48879,120.504673 156.280817,120.296816 156.280817,119.999337 L156.280817,110.947352 L148.959562,110.947352 L148.959562,119.999337 C148.959562,120.296816 148.780173,120.504673 148.454778,120.504673 L146.941684,120.504673 C146.64636,120.504673 146.438615,120.296816 146.438615,119.999337 L146.438615,100.233423 C146.438615,99.9369743 146.64636,99.7291169 146.941684,99.7291169 L148.454778,99.7291169 C148.780173,99.7291169 148.959562,99.9369743 148.959562,100.233423 L148.959562,108.69274 Z M174.748993,105.278865 C174.748993,105.575886 174.540448,105.784201 174.244438,105.784201 L172.731687,105.784201 C172.436019,105.784201 172.228389,105.575886 172.228389,105.278865 L172.228389,104.922554 C172.228389,102.994035 170.89377,101.569708 168.639678,101.569708 C166.417714,101.569708 165.290267,103.022764 165.290267,104.418935 C165.290267,106.496822 167.276818,107.712605 169.411889,108.959063 C171.990689,110.531958 174.867214,112.104738 174.867214,115.312679 C174.867214,118.011964 172.643649,120.979884 168.729544,120.979884 C164.875464,120.979884 162.592331,118.544656 162.592331,115.876045 L162.592331,115.162852 C162.592331,114.867204 162.799847,114.657859 163.096544,114.657859 L164.609524,114.657859 C164.935261,114.657859 165.112821,114.867204 165.112821,115.162852 L165.112821,115.6667 C165.112821,117.566833 166.980808,118.665524 168.848108,118.665524 C170.923268,118.665524 172.347982,117.181221 172.347982,115.369679 C172.347982,113.440932 170.241266,112.284095 168.196177,111.066939 C165.527968,109.522773 162.771264,107.831871 162.771264,104.38929 C162.771264,102.221666 164.757472,99.2839632 168.789455,99.2839632 C172.583739,99.2839632 174.748993,102.073671 174.748993,104.596918 L174.748993,105.278865 Z M190.221908,99.7291741 C190.518834,99.7291741 190.724977,99.9369171 190.724977,100.23348 L190.724977,101.599548 C190.724977,101.895538 190.518834,102.103281 190.221908,102.103281 L182.571144,102.103281 L182.571144,108.513669 L189.538764,108.513669 C189.835117,108.513669 190.044005,108.722785 190.044005,109.020378 L190.044005,110.29568 C190.044005,110.591442 189.835117,110.799757 189.538764,110.799757 L182.571144,110.799757 L182.571144,118.130509 L190.221908,118.130509 C190.518834,118.130509 190.724977,118.338366 190.724977,118.635502 L190.724977,119.999394 C190.724977,120.296759 190.518834,120.504731 190.221908,120.504731 L180.556924,120.504731 C180.261143,120.504731 180.051912,120.296759 180.051912,119.999394 L180.051912,100.23348 C180.051912,99.9369171 180.261143,99.7291741 180.556924,99.7291741 L190.221908,99.7291741 Z M158.859903,138.943791 C158.859903,142.534597 156.310601,145.206183 152.574742,145.206183 L147.327275,145.206183 C147.031722,145.206183 146.824092,144.996838 146.824092,144.700732 L146.824092,124.934589 C146.824092,124.638369 147.031722,124.429482 147.327275,124.429482 L152.397982,124.429482 C155.983834,124.429482 158.859903,126.595961 158.859903,130.485504 L158.859903,138.943791 Z M149.342981,142.800714 L152.011876,142.800714 C154.443986,142.800714 156.340785,141.525527 156.340785,138.350207 L156.340785,131.166878 C156.340785,127.962028 154.265282,126.864596 151.893769,126.864596 L149.342981,126.864596 L149.342981,142.800714 Z M173.918735,124.429505 C174.214288,124.429505 174.422147,124.638392 174.422147,124.934612 L174.422147,126.299764 C174.422147,126.595984 174.214288,126.804528 173.918735,126.804528 L166.268542,126.804528 L166.268542,133.215373 L173.236962,133.215373 C173.532287,133.215373 173.739802,133.424375 173.739802,133.720709 L173.739802,134.996926 C173.739802,135.293032 173.532287,135.499744 173.236962,135.499744 L166.268542,135.499744 L166.268542,142.830611 L173.918735,142.830611 C174.214288,142.830611 174.422147,143.04007 174.422147,143.335947 L174.422147,144.700641 C174.422147,144.996746 174.214288,145.206206 173.918735,145.206206 L164.252608,145.206206 C163.95694,145.206206 163.749081,144.996746 163.749081,144.700641 L163.749081,124.934612 C163.749081,124.638392 163.95694,124.429505 164.252608,124.429505 L173.918735,124.429505 Z M191.051835,129.979974 C191.051835,130.276079 190.843976,130.485539 190.548652,130.485539 L189.035214,130.485539 C188.738861,130.485539 188.532031,130.276079 188.532031,129.979974 L188.532031,129.624578 C188.532031,127.695716 187.196383,126.27116 184.944006,126.27116 C182.722042,126.27116 181.594367,127.725705 181.594367,129.119242 C181.594367,131.197015 183.581947,132.415202 185.716103,133.66063 C188.293531,135.23341 191.170742,136.806305 191.170742,140.012528 C191.170742,142.712271 188.945119,145.681451 185.034101,145.681451 C181.179221,145.681451 178.89666,143.246108 178.89666,140.576124 L178.89666,139.864304 C178.89666,139.567054 179.103718,139.359426 179.400072,139.359426 L180.912366,139.359426 C181.239246,139.359426 181.415663,139.567054 181.415663,139.864304 L181.415663,140.368267 C181.415663,142.26737 183.28525,143.367091 185.149921,143.367091 C187.22611,143.367091 188.650252,141.882673 188.650252,140.071017 C188.650252,138.141239 186.544794,136.984059 184.499247,135.768391 C181.831838,134.224111 179.073877,132.533438 179.073877,129.089254 C179.073877,126.92289 181.0618,123.984271 185.091954,123.984271 C188.888181,123.984271 191.051835,126.775009 191.051835,129.298485 L191.051835,129.979974 Z M157.526667,149.130499 C157.85309,149.130499 158.029736,149.337784 158.029736,149.635378 L158.029736,150.880805 C158.029736,151.176911 157.85309,151.385684 157.526667,151.385684 L153.879874,151.385684 L153.879874,167.531033 L157.615733,167.531033 C157.941584,167.531033 158.119031,167.739234 158.119031,168.036598 L158.119031,169.399689 C158.119031,169.697397 157.941584,169.905254 157.615733,169.905254 L147.624326,169.905254 C147.327286,169.905254 147.121028,169.697397 147.121028,169.399689 L147.121028,168.036598 C147.121028,167.739234 147.327286,167.531033 147.624326,167.531033 L151.360185,167.531033 L151.360185,151.385684 L147.713735,151.385684 C147.416696,151.385684 147.208837,151.176911 147.208837,150.880805 L147.208837,149.635378 C147.208837,149.337784 147.416696,149.130499 147.713735,149.130499 L157.526667,149.130499 Z M175.31251,155.094886 C175.31251,155.390877 175.132778,155.600337 174.807269,155.600337 L173.295547,155.600337 C172.99885,155.600337 172.791563,155.390877 172.791563,155.094886 L172.791563,154.858299 C172.791563,152.156267 170.715375,151.146968 169.026435,151.146968 C167.336695,151.146968 165.261764,152.156267 165.261764,155.36375 L165.261764,163.701168 C165.261764,166.879464 167.336695,167.886359 169.026435,167.886359 C170.627909,167.886359 172.791563,166.879464 172.791563,163.910284 L172.791563,162.485728 L169.857185,162.485728 C169.559917,162.485728 169.352972,162.307859 169.352972,161.980278 L169.352972,160.70532 C169.352972,160.40807 169.559917,160.199869 169.857185,160.199869 L174.807269,160.199869 C175.132778,160.199869 175.31251,160.40807 175.31251,160.70532 L175.31251,164.29521 C175.31251,168.006426 172.643615,170.410408 169.114929,170.410408 C165.617342,170.410408 162.741274,168.006426 162.741274,164.29521 L162.741274,154.770738 C162.741274,151.058491 165.617342,148.625667 169.026435,148.625667 C172.435985,148.625667 175.31251,151.058491 175.31251,154.472802 L175.31251,155.094886 Z M179.637097,169.905243 C179.341773,169.905243 179.223209,169.697386 179.163641,169.399678 L179.163641,149.635366 C179.223209,149.337773 179.371614,149.130488 179.668196,149.130488 L181.29711,149.130488 C181.624334,149.130488 181.7126,149.367418 181.83185,149.635366 L189.213701,165.424748 L189.213701,149.635366 C189.213701,149.337773 189.452087,149.130488 189.749698,149.130488 L190.875429,149.130488 C191.170754,149.130488 191.316987,149.337773 191.316987,149.635366 L191.316987,169.399678 C191.316987,169.697386 191.082031,169.905243 190.784305,169.905243 L189.183517,169.905243 C188.859495,169.905243 188.590239,169.548246 188.473389,169.281442 L181.268756,153.640055 L181.268756,169.399678 C181.268756,169.697386 181.061811,169.905243 180.763743,169.905243 L179.637097,169.905243 Z M181.861897,182.703744 L184.76792,182.703744 C186.337953,182.703744 188.057992,181.398912 188.057992,179.588172 L188.057992,178.935527 C188.057992,177.392391 186.784198,176.145476 184.76792,176.145476 L181.861897,176.145476 L181.861897,182.703744 Z M188.918354,188.135507 C188.918354,185.82069 187.019497,184.752101 185.03409,184.752101 L181.861897,184.752101 L181.861897,192.292198 L185.180208,192.292198 C187.346721,192.292198 188.918354,190.896143 188.918354,188.937979 L188.918354,188.135507 Z M190.578481,179.737998 C190.578481,181.842898 188.738964,183.506559 187.761638,183.655012 C189.155025,183.832653 191.438615,185.435535 191.438615,187.898577 L191.438615,189.50146 C191.438615,191.965075 189.065387,194.606672 185.537044,194.606672 L179.845048,194.606672 C179.548694,194.606672 179.34175,194.397213 179.34175,194.101222 L179.34175,174.334735 C179.34175,174.039431 179.548694,173.830086 179.845048,173.830086 L185.331129,173.830086 C188.473366,173.830086 190.578481,176.087102 190.578481,178.401576 L190.578481,179.737998 Z" id="Combined-Shape"></path>
        </g>
    </g>
</svg>