<?xml version="1.0" encoding="UTF-8" standalone="no"?>
<svg width="52px" height="23px" viewBox="0 0 52 23" version="1.1" xmlns="http://www.w3.org/2000/svg" xmlns:xlink="http://www.w3.org/1999/xlink">
    <!-- Generator: Sketch 40.3 (33839) - http://www.bohemiancoding.com/sketch -->
    <title>Combined Shape</title>
    <desc>Created with Sketch.</desc>
    <defs></defs>
    <g id="Symbols" stroke="none" stroke-width="1" fill="none" fill-rule="evenodd">
        <g id="top-menu" fill="#FFFFFF">
            <g id="top">
                <path d="M2.70967742,14.6202532 C1.31422406,14.6202532 -1.70530257e-13,13.4022098 -1.70530257e-13,11.6962025 L-1.70530257e-13,3.75949367 C-1.70530257e-13,2.05348645 1.31422406,0.835443038 2.70967742,0.835443038 C4.55674368,0.835443038 5.87096774,2.05348645 5.87096774,3.75949367 L5.87096774,11.6962025 C5.87096774,13.4022098 4.55674368,14.6202532 2.70967742,14.6202532 Z M14.2580645,22.556962 C12.9622864,22.556962 11.7419355,21.3461868 11.7419355,20.0506329 L11.7419355,3.34177215 C11.7419355,2.04621823 12.9622864,0.835443038 14.2580645,0.835443038 C15.9731975,0.835443038 17.1935484,2.04621823 17.1935484,3.34177215 L17.1935484,20.0506329 C17.1935484,21.3461868 15.9731975,22.556962 14.2580645,22.556962 Z M37.7419355,22.556962 C36.0268025,22.556962 34.8064516,21.3461868 34.8064516,20.0506329 L34.8064516,3.34177215 C34.8064516,2.04621823 36.0268025,0.835443038 37.7419355,0.835443038 C39.0377136,0.835443038 40.2580645,2.04621823 40.2580645,3.34177215 L40.2580645,20.0506329 C40.2580645,21.3461868 39.0377136,22.556962 37.7419355,22.556962 Z M26,14.6202532 C24.3787402,14.6202532 23.0645161,13.4022098 23.0645161,11.8996008 L23.0645161,3.55609538 C23.0645161,2.05348645 24.3787402,0.835443038 26,0.835443038 C27.6212598,0.835443038 28.9354839,2.05348645 28.9354839,3.55609538 L28.9354839,11.8996008 C28.9354839,13.4022098 27.6212598,14.6202532 26,14.6202532 Z M49.2903226,14.6202532 C47.4432563,14.6202532 46.1290323,13.4022098 46.1290323,11.6962025 L46.1290323,3.75949367 C46.1290323,2.05348645 47.4432563,0.835443038 49.2903226,0.835443038 C50.6857759,0.835443038 52,2.05348645 52,3.75949367 L52,11.6962025 C52,13.4022098 50.6857759,14.6202532 49.2903226,14.6202532 Z" id="Combined-Shape"></path>
            </g>
        </g>
    </g>
</svg>