<?xml version="1.0" encoding="utf-8"?>
<!-- Generator: Adobe Illustrator 18.0.0, SVG Export Plug-In . SVG Version: 6.00 Build 0)  -->
<!DOCTYPE svg PUBLIC "-//W3C//DTD SVG 1.1//EN" "http://www.w3.org/Graphics/SVG/1.1/DTD/svg11.dtd">
<svg version="1.1" id="Layer_1" xmlns="http://www.w3.org/2000/svg" xmlns:xlink="http://www.w3.org/1999/xlink" x="0px" y="0px"
	 viewBox="0 0 59.5 38" enable-background="new 0 0 59.5 38" xml:space="preserve">
<g>
	<g>
		<path fill="#D3603A" d="M28,17.8c1.1-0.9,2-2.4,2-4.8c0-4.9-3.3-8-8.4-8H7.9c-0.6,0-1,0.4-1,1v26.2c0,0.6,0.4,1,1,1h13.6
			c0,0,0.1,0,0.1,0c0,0,0,0,0,0c0.6,0,2.8-0.1,4.9-1.2c2-1,4.3-3.1,4.3-7.5c0-0.2,0.2-3.8-1.9-5.9C28.7,18.3,28.4,18,28,17.8z
			 M28.9,24.5c0,2.7-1.1,4.7-3.2,5.8c-1.8,0.9-3.6,0.9-4,0.9h0l-0.1,0H8.9V7h12.7c4,0,6.4,2.2,6.4,6c0,3.6-2.8,4-3.1,4
			c-0.5,0-0.9,0.5-0.9,1c0,0.5,0.5,1,1,1c1.1,0,1.9,0.3,2.6,1C29.1,21.5,28.9,24.4,28.9,24.5z M14,17.5h7.2c2.2,0,3.3-1.3,3.3-4.1
			c0-2.9-1.9-3.7-2.9-3.7H14c-0.6,0-1,0.4-1,1v5.9C13,17.1,13.4,17.5,14,17.5z M15,11.7h6.6c0,0,0.9,0,0.9,1.7
			c0,2.1-0.6,2.1-1.3,2.1H15V11.7z M21.6,19.6H14c-0.6,0-1,0.4-1,1v7c0,0.6,0.4,1,1,1h6.8l0.3,0l0.2,0c2.6-0.1,4.1-1.7,4.1-4.4
			C25.4,20.5,22.9,19.6,21.6,19.6z M21.2,26.6H15v-5h6.6c0.3,0,1.8,0.2,1.8,2.6C23.4,26.2,22.3,26.6,21.2,26.6z M53.1,23.2
			c0-0.2,0.7-5.8-2.5-9.5c-1.8-2-4.3-3-7.6-3c-5.7,0-8.4,3-9.7,5.6c-1.3,2.7-1.4,5.4-1.4,5.4c0,0.2-0.3,5.4,3,9
			c1.9,2.1,4.6,3.1,8,3.1h0c0,0,0.2,0,0.4,0c4.6,0,9.6-2,9.6-7.9c0-0.6-0.4-1-1-1h-4.6c-0.3,0-0.5,0.1-0.7,0.3
			c-0.2,0.2-0.3,0.5-0.3,0.7c0,0,0,0.5-0.5,1c-0.5,0.5-1.4,0.7-2.7,0.6c-1.6-0.1-3.3-0.5-3.6-3.5h12.5C52.6,24.1,53,23.7,53.1,23.2z
			 M51.2,22.1H38.5c-0.6,0-1,0.4-1,1c0,6.1,4.2,6.4,5.5,6.5c2,0.1,3.3-0.3,4.3-1.3c0.5-0.5,0.7-1.1,0.9-1.5h2.7
			c-0.3,1.9-1.3,3.2-3,4.1c-1.8,0.8-3.7,0.9-4.5,0.9c-0.2,0-0.3,0-0.4,0c-2.8,0-5.1-0.8-6.6-2.5c-2.7-2.9-2.5-7.4-2.5-7.5
			c0-0.4,0.1-9.1,9.1-9.1c2.7,0,4.7,0.8,6.1,2.3C51,17.3,51.2,20.6,51.2,22.1z M43.1,14.6c-3.9,0-5.4,3.2-5.6,4.9
			c0,0.3,0,0.6,0.2,0.8c0.2,0.2,0.5,0.3,0.8,0.3h8.6c0.5,0,1-0.4,1-1c0-0.1,0-2.2-1.4-3.7C45.7,15,44.5,14.6,43.1,14.6z M39.8,18.6
			c0.4-0.9,1.4-2,3.3-2c0.9,0,1.6,0.2,2.1,0.7c0.4,0.4,0.6,0.9,0.7,1.3H39.8z M37.3,9.1h10.8c0.6,0,0.8-0.2,0.8-0.8V7.8
			c0-0.6-0.2-0.8-0.8-0.8H37.3c-0.6,0-0.8,0.2-0.8,0.8v0.5C36.5,8.9,36.8,9.1,37.3,9.1z"/>
	</g>
</g>
</svg>
