<?xml version="1.0" encoding="UTF-8"?>
<svg width="24px" height="22px" viewBox="0 0 24 22" version="1.1" xmlns="http://www.w3.org/2000/svg" xmlns:xlink="http://www.w3.org/1999/xlink">
    <!-- Generator: Sketch 49.3 (51167) - http://www.bohemiancoding.com/sketch -->
    <title>sberLogo</title>
    <desc>Created with Sketch.</desc>
    <defs></defs>
    <g id="Symbols" stroke="none" stroke-width="1" fill="none" fill-rule="evenodd">
        <g id="icon-sberLogo" fill="#000000">
            <path d="M7.6554368,6.58390244 L7.6554368,6.5855122 L2.88917218,3.82907317 C3.1441687,3.48243902 3.41869686,3.1497561 3.71167158,2.83317073 L7.69232991,5.1335122 L16.5694639,0 C17.0333405,0.18995122 17.4814833,0.408878049 17.9122646,0.654634146 L7.6554368,6.58390244 Z M7.6554368,9.50292683 L7.65326662,9.50346341 L1.62775326,6.01834146 C1.79974027,5.62073171 1.99505675,5.23439024 2.21207506,4.86146341 L7.65380916,8.00853659 L7.65380916,8.00692683 L7.65652189,8.008 L19.0689722,1.408 C19.4379034,1.68273171 19.7900156,1.97839024 20.1231387,2.29336585 L7.6554368,9.50292683 Z M7.6554368,12.4219512 L0.877955002,8.50273171 C0.958251776,8.05629268 1.0640482,7.61843902 1.19534428,7.19131707 L7.6554368,10.9286341 L7.6554368,10.9254146 L7.65706444,10.9270244 L20.9939246,3.21414634 C21.2744208,3.5457561 21.5359279,3.89346341 21.7779033,4.25512195 L7.6554368,12.4219512 Z M22.4045436,5.31756098 L22.4045436,5.31702439 C23.2118518,6.87043902 23.6675902,8.6315122 23.6675902,10.4977561 C23.6675902,16.770439 18.5264265,21.855122 12.1840664,21.855122 C5.84170628,21.855122 0.699999988,16.770439 0.699999988,10.4977561 C0.699999988,10.2756098 0.706510537,10.0545366 0.719531636,9.83560976 L7.6554368,13.8460488 L7.6554368,13.8439024 L7.65706444,13.8455122 L22.4045436,5.31756098 Z" id="sberLogo"></path>
        </g>
    </g>
</svg>