<?xml version="1.0" encoding="utf-8"?>
<!-- Generator: Adobe Illustrator 18.0.0, SVG Export Plug-In . SVG Version: 6.00 Build 0)  -->
<!DOCTYPE svg PUBLIC "-//W3C//DTD SVG 1.1//EN" "http://www.w3.org/Graphics/SVG/1.1/DTD/svg11.dtd">
<svg version="1.1" id="Layer_2" xmlns="http://www.w3.org/2000/svg" xmlns:xlink="http://www.w3.org/1999/xlink" x="0px" y="0px"
	 viewBox="0 0 54.5 54.8" enable-background="new 0 0 54.5 54.8" xml:space="preserve">
<g>
	<g>
		<path fill="#D3603A" d="M41.2,13l-0.9-0.9l0,0.1c-3.6-3-8.1-4.7-12.8-4.7c-2.6,0-5,0.5-7.4,1.5l0,0l-0.6,0.3
			C13.6,11.8,9.3,17.1,8,23.4l-0.2,0.8l0,0c-0.2,1.1-0.3,2.2-0.3,3.3c0,5.8,2.5,11.3,7,15.1l0,0l0.6,0.5c3.6,2.8,7.9,4.4,12.4,4.4
			c2.4,0,4.8-0.4,7.1-1.3l0.6-0.2v0c6.6-2.7,11.1-8.5,12-15.6l0.1,0l0.1-1.3c0-0.5,0.1-1,0.1-1.5C47.5,22,45.2,16.8,41.2,13z
			 M45.2,27.5v0.1c-2-0.7-4.6-1-7.1-1c-2.1,0-4.2,0.3-6.3,0.8c-0.4-1.1-0.8-2.1-1.2-3.1l0.1,0l0,0c4-2,7.4-5,9.9-8.8
			C43.7,18.7,45.2,22.9,45.2,27.5z M39.2,13.9c-2.3,3.6-5.5,6.5-9.4,8.5c-2.2-4.3-4.9-8.3-8.2-11.8c1.9-0.7,3.9-1,5.9-1
			C31.8,9.5,36,11.1,39.2,13.9z M19.6,11.4c3.4,3.5,6.2,7.5,8.4,11.9c-2.8,1.1-5.7,1.7-8.7,1.7c-3.2,0-6.3-0.6-9.2-1.9
			C11.4,18,14.9,13.7,19.6,11.4z M9.5,27.5c0-0.8,0.1-1.6,0.2-2.5c3,1.2,6.3,1.8,9.6,1.8c3.3,0,6.5-0.6,9.6-1.9
			c0.4,0.9,0.8,1.9,1.2,2.9c-6.4,2.2-11.7,6.7-14.7,12.8C11.6,37.3,9.5,32.6,9.5,27.5z M16.9,42c2.8-5.8,7.7-10.2,13.8-12.2
			c1.6,4.7,2.4,9.7,2.5,14.7c-1.9,0.6-3.8,1-5.7,1C23.7,45.5,20,44.3,16.9,42z M35.2,43.7c-0.1-4.9-1-9.8-2.5-14.5
			c4.2-1,8.6-0.9,12.7,0.4C44.6,35.9,40.8,41.2,35.2,43.7z"/>
	</g>
</g>
</svg>
