<svg width="58" height="66" viewBox="0 0 58 66" fill="none" xmlns="http://www.w3.org/2000/svg">
<path fill-rule="evenodd" clip-rule="evenodd" d="M10 28.9171C10 30.6565 12.2283 30.6565 12.2283 28.9171V19.2179H21.9221C22.5349 19.2179 23.0362 18.7167 23.0362 18.1038V7.28348H35.8496C38.301 7.28348 40.3065 9.28906 40.3065 11.7404C40.3065 11.7404 40.1923 10.4682 40.3065 11.9577C40.4208 13.4472 42.5344 13.2623 42.5344 11.9577V11.6852C42.5344 8.00817 39.5262 5 35.8492 5H23.0362C21.7411 5 20.8714 5.43486 20.0017 6.30457L12.1743 15.0017C11.3046 15.8714 10 17.6108 10 19.7851V28.9171ZM13.4789 16.9336L20.8079 8.91371V16.9336H13.4789Z" fill="#D3603A"/>
<path d="M42.5344 33.7005C42.5344 31.9611 40.3065 31.9611 40.3065 33.7005V38.3701C40.3065 40.8214 38.3011 42.8269 35.8497 42.8269H21.7411C20.0017 42.8269 20.0017 45 21.7411 45H35.8492C39.5262 45 42.5344 41.9918 42.5344 38.3148V33.7005Z" fill="#D3603A"/>
<path d="M30.4707 59.0332V55.5176H27.5352V56.8125H28.7598V58.3828C28.709 58.4102 28.6445 58.4492 28.5664 58.5C28.4922 58.5469 28.3926 58.5918 28.2676 58.6348C28.1426 58.6777 27.9766 58.6992 27.7695 58.6992C27.5117 58.6992 27.2871 58.6602 27.0957 58.582C26.9082 58.5 26.752 58.3691 26.627 58.1895C26.5059 58.0098 26.4141 57.7773 26.3516 57.4922C26.2891 57.207 26.2578 56.8633 26.2578 56.4609V54.9961C26.2578 54.5898 26.2852 54.2461 26.3398 53.9648C26.3945 53.6836 26.4785 53.4531 26.5918 53.2734C26.7051 53.0938 26.8457 52.9648 27.0137 52.8867C27.1816 52.8047 27.3789 52.7637 27.6055 52.7637C27.8672 52.7637 28.0801 52.8086 28.2441 52.8984C28.4082 52.9844 28.5352 53.1289 28.625 53.332C28.7188 53.5352 28.7793 53.8164 28.8066 54.1758H30.4648C30.4219 53.5625 30.293 53.0449 30.0781 52.623C29.8672 52.2012 29.5547 51.8828 29.1406 51.668C28.7305 51.4531 28.2051 51.3457 27.5645 51.3457C27.0996 51.3457 26.6816 51.4199 26.3105 51.5684C25.9434 51.7168 25.627 51.9434 25.3613 52.248C25.0957 52.5527 24.8926 52.9355 24.752 53.3965C24.6152 53.8535 24.5469 54.3906 24.5469 55.0078V56.4609C24.5469 57.0859 24.6191 57.627 24.7637 58.084C24.9082 58.5371 25.1172 58.916 25.3906 59.2207C25.668 59.5215 25.998 59.7461 26.3809 59.8945C26.7676 60.043 27.1973 60.1172 27.6699 60.1172C28.2051 60.1172 28.6582 60.0547 29.0293 59.9297C29.4043 59.8008 29.707 59.6523 29.9375 59.4844C30.1719 59.3125 30.3496 59.1621 30.4707 59.0332Z" fill="#D3603A"/>
<path fill-rule="evenodd" clip-rule="evenodd" d="M19.5664 56.9941H20.7617C21.3359 56.9941 21.8301 56.8828 22.2441 56.6602C22.6582 56.4375 22.9746 56.125 23.1934 55.7227C23.416 55.3164 23.5273 54.8379 23.5273 54.2871C23.5273 53.7402 23.416 53.2559 23.1934 52.834C22.9746 52.4082 22.6582 52.0742 22.2441 51.832C21.8301 51.5898 21.3359 51.4688 20.7617 51.4688H17.8555V60H19.5664V56.9941ZM19.5664 55.5703H20.7617C21.0039 55.5703 21.2012 55.5156 21.3535 55.4062C21.5098 55.2969 21.623 55.1465 21.6934 54.9551C21.7637 54.7598 21.7988 54.541 21.7988 54.2988C21.7988 54.0527 21.7617 53.8242 21.6875 53.6133C21.6172 53.3984 21.5059 53.2246 21.3535 53.0918C21.2051 52.959 21.0078 52.8926 20.7617 52.8926H19.5664V55.5703Z" fill="#D3603A"/>
<path fill-rule="evenodd" clip-rule="evenodd" d="M34.6133 56.9941H33.418V60H31.707V51.4688H34.6133C35.1875 51.4688 35.6816 51.5898 36.0957 51.832C36.5098 52.0742 36.8262 52.4082 37.0449 52.834C37.2676 53.2559 37.3789 53.7402 37.3789 54.2871C37.3789 54.8379 37.2676 55.3164 37.0449 55.7227C36.8262 56.125 36.5098 56.4375 36.0957 56.6602C35.6816 56.8828 35.1875 56.9941 34.6133 56.9941ZM33.418 52.8926V55.5703H34.6133C34.8555 55.5703 35.0527 55.5156 35.2051 55.4062C35.3613 55.2969 35.4746 55.1465 35.5449 54.9551C35.6152 54.7598 35.6504 54.541 35.6504 54.2988C35.6504 54.0527 35.6133 53.8242 35.5391 53.6133C35.4688 53.3984 35.3574 53.2246 35.2051 53.0918C35.0566 52.959 34.8594 52.8926 34.6133 52.8926H33.418Z" fill="#D3603A"/>
<path fill-rule="evenodd" clip-rule="evenodd" d="M15.7358 42.2159C16.3374 42.2159 16.8249 41.7284 16.8249 41.1268C16.8249 39.3545 16.8853 37.68 17.0042 36.1388C19.4729 35.1028 21.5592 33.621 22.9142 31.9406C25.0969 29.2339 25.0179 26.3076 22.2132 24.905C19.4057 23.5016 17.2613 25.1931 16.0617 28.8774C15.56 30.4184 15.1924 32.354 14.958 34.5829C14.2633 34.8156 13.5409 35.0096 12.7995 35.1578C12.2097 35.2756 11.827 35.8496 11.9451 36.4394C12.0631 37.0292 12.6368 37.4117 13.2266 37.2938C13.7485 37.1894 14.2626 37.0646 14.7667 36.9214C14.6866 38.2502 14.6468 39.6578 14.6468 41.1268C14.6468 41.7284 15.1343 42.2159 15.7358 42.2159ZM21.2389 26.8534C22.593 27.5304 22.628 28.8254 21.2186 30.5731C20.2954 31.718 18.9199 32.7777 17.2672 33.6183C17.4806 32.0406 17.7698 30.6669 18.1329 29.552C18.9777 26.957 19.9351 26.2015 21.2389 26.8534Z" fill="#D3603A"/>
<path fill-rule="evenodd" clip-rule="evenodd" d="M42.5127 16.0746L32.7105 25.8767C32.3018 26.2852 32.0727 26.8394 32.0727 27.4171V30.2333C32.0727 30.8349 32.5602 31.3224 33.1618 31.3224H35.978C36.5556 31.3224 37.1098 31.093 37.5183 30.6845L47.3204 20.8824C48.1711 20.0317 48.1711 18.6524 47.3204 17.8017L45.5933 16.0746C44.7426 15.2239 43.3633 15.2239 42.5127 16.0746ZM42.5125 22.6094L35.9777 29.1442H34.2508V27.417L40.7856 20.8822L42.5125 22.6094ZM44.0527 17.6149L45.7799 19.342L44.0527 21.0692L42.3256 19.342L44.0527 17.6149Z" fill="#D3603A"/>
<path d="M21.5534 37.5902C22.0061 37.9863 22.6941 37.9406 23.0902 37.4879L25.3028 34.9589L25.4032 35.762C25.5152 36.6574 26.3317 37.2925 27.2271 37.1805C27.6024 37.1335 27.95 36.9578 28.2102 36.6831L29.2236 35.6136L29.8694 36.5342C30.2688 37.104 30.9851 37.3581 31.654 37.1675L35.6382 36.0335C36.2167 35.8687 36.5521 35.2663 36.3873 34.6878C36.2228 34.1093 35.6203 33.7738 35.0416 33.9384L31.4303 34.9665L30.6241 33.817C30.5614 33.7275 30.4897 33.6444 30.4102 33.5692C29.7552 32.9487 28.7213 32.9766 28.1008 33.6317L27.4217 34.3481L27.3137 33.4838C27.264 33.0863 27.0701 32.7208 26.7685 32.457C26.0894 31.863 25.0573 31.9318 24.4633 32.6107L21.4509 36.0535C21.0548 36.5062 21.1007 37.1941 21.5534 37.5902Z" fill="#D3603A"/>
</svg>
