<svg width="58" height="66" viewBox="0 0 58 66" fill="none" xmlns="http://www.w3.org/2000/svg">
<path fill-rule="evenodd" clip-rule="evenodd" d="M10 28.9171C10 30.6565 12.2283 30.6565 12.2283 28.9171V19.2179H21.9221C22.5349 19.2179 23.0362 18.7167 23.0362 18.1038V7.28348H35.8496C38.301 7.28348 40.3065 9.28906 40.3065 11.7404C40.3065 11.7404 40.1923 10.4682 40.3065 11.9577C40.4208 13.4472 42.5344 13.2623 42.5344 11.9577V11.6852C42.5344 8.00817 39.5262 5 35.8492 5H23.0362C21.7411 5 20.8714 5.43486 20.0017 6.30457L12.1743 15.0017C11.3046 15.8714 10 17.6108 10 19.7851V28.9171ZM13.4789 16.9336L20.8079 8.91371V16.9336H13.4789Z" fill="#D3603A"/>
<path d="M42.5344 33.7005C42.5344 31.9611 40.3065 31.9611 40.3065 33.7005V38.3701C40.3065 40.8214 38.3011 42.8269 35.8497 42.8269H21.7411C20.0017 42.8269 20.0017 45 21.7411 45H35.8492C39.5262 45 42.5344 41.9918 42.5344 38.3148V33.7005Z" fill="#D3603A"/>
<path fill-rule="evenodd" clip-rule="evenodd" d="M37.1059 58.6699H37.1879C37.5629 58.6699 37.8832 58.6152 38.1488 58.5059C38.4184 58.3965 38.6371 58.2363 38.8051 58.0254C38.9769 57.8105 39.1019 57.5469 39.1801 57.2344C39.2219 57.0672 39.2525 56.8878 39.2719 56.6961C39.1371 56.8385 38.9874 56.9574 38.8227 57.0527C38.6039 57.1777 38.3676 57.2402 38.1137 57.2402C37.7738 57.2402 37.473 57.168 37.2113 57.0234C36.9496 56.8789 36.7289 56.6777 36.5492 56.4199C36.3734 56.1582 36.2406 55.8535 36.1508 55.5059C36.0609 55.1543 36.016 54.7754 36.016 54.3691C36.016 53.9551 36.0727 53.5664 36.1859 53.2031C36.3031 52.8359 36.4691 52.5137 36.684 52.2363C36.8988 51.959 37.1586 51.7422 37.4633 51.5859C37.768 51.4258 38.1078 51.3457 38.4828 51.3457C38.8539 51.3457 39.1898 51.4277 39.4906 51.5918C39.7914 51.7559 40.0492 51.9922 40.2641 52.3008C40.4789 52.6055 40.643 52.9727 40.7562 53.4023C40.8734 53.8281 40.932 54.3047 40.932 54.832V55.4238C40.932 55.9824 40.8832 56.502 40.7855 56.9824C40.6879 57.459 40.5394 57.8887 40.3402 58.2715C40.141 58.6543 39.893 58.9824 39.5961 59.2559C39.2992 59.5254 38.9516 59.7324 38.5531 59.877C38.1586 60.0176 37.7113 60.0879 37.2113 60.0879H37.1059V58.6699ZM39.2973 54.5215V55.2562C39.2568 55.3574 39.208 55.4523 39.1508 55.541C39.0727 55.6621 38.9809 55.7598 38.8754 55.834C38.7699 55.9043 38.6547 55.9395 38.5297 55.9395C38.3773 55.9395 38.2465 55.8984 38.1371 55.8164C38.0277 55.7344 37.9379 55.6191 37.8676 55.4707C37.7973 55.3223 37.7445 55.1523 37.7094 54.9609C37.6742 54.7695 37.6566 54.5645 37.6566 54.3457C37.6566 54.1387 37.6742 53.9375 37.7094 53.7422C37.7445 53.5469 37.7953 53.373 37.8617 53.2207C37.932 53.0645 38.018 52.9414 38.1195 52.8516C38.2211 52.7617 38.3383 52.7168 38.4711 52.7168C38.5844 52.7168 38.6898 52.7539 38.7875 52.8281C38.8852 52.9023 38.973 53.0156 39.0512 53.168C39.1293 53.3164 39.1898 53.5039 39.2328 53.7305C39.2758 53.9531 39.2973 54.2168 39.2973 54.5215Z" fill="#D3603A"/>
<path fill-rule="evenodd" clip-rule="evenodd" d="M34.9262 56.4668V54.9844C34.9262 54.4727 34.8871 54.0195 34.809 53.625C34.7309 53.2266 34.6176 52.8848 34.4691 52.5996C34.3246 52.3105 34.1508 52.0742 33.9476 51.8906C33.7484 51.707 33.5199 51.5723 33.2621 51.4863C33.0082 51.3965 32.7387 51.3516 32.4535 51.3516C32.0902 51.3516 31.7562 51.4219 31.4516 51.5625C31.1508 51.6992 30.891 51.9141 30.6723 52.207C30.4535 52.5 30.2816 52.877 30.1566 53.3379C30.0355 53.7949 29.975 54.3438 29.975 54.9844V56.4668C29.975 56.9824 30.0141 57.4395 30.0922 57.8379C30.1703 58.2324 30.2816 58.5742 30.4262 58.8633C30.5746 59.1484 30.7504 59.3848 30.9535 59.5723C31.1605 59.7559 31.391 59.8926 31.6449 59.9824C31.8988 60.0723 32.1703 60.1172 32.4594 60.1172C32.8226 60.1172 33.1547 60.0469 33.4555 59.9062C33.7562 59.7656 34.016 59.5488 34.2348 59.2559C34.4535 58.959 34.6234 58.5801 34.7445 58.1191C34.8656 57.6582 34.9262 57.1074 34.9262 56.4668ZM33.2797 54.7441V56.6953C33.2797 57.0742 33.2601 57.3965 33.2211 57.6621C33.1859 57.9238 33.1332 58.1348 33.0629 58.2949C32.9926 58.4551 32.9047 58.5723 32.7992 58.6465C32.6976 58.7168 32.5844 58.752 32.4594 58.752C32.3539 58.752 32.2562 58.7305 32.1664 58.6875C32.0805 58.6406 32.0043 58.5684 31.9379 58.4707C31.8754 58.373 31.8187 58.2441 31.768 58.084C31.7211 57.9199 31.684 57.7227 31.6566 57.4922C31.6332 57.2617 31.6215 56.9961 31.6215 56.6953V54.7441C31.6215 54.3691 31.6391 54.0527 31.6742 53.7949C31.7133 53.5332 31.7699 53.3242 31.8441 53.168C31.9184 53.0078 32.0062 52.8926 32.1078 52.8223C32.2094 52.752 32.3226 52.7168 32.4476 52.7168C32.5531 52.7168 32.6488 52.7402 32.7348 52.7871C32.8207 52.8301 32.8988 52.9004 32.9691 52.998C33.0394 53.0957 33.0961 53.2227 33.1391 53.3789C33.182 53.5352 33.2152 53.7266 33.2387 53.9531C33.266 54.1797 33.2797 54.4434 33.2797 54.7441Z" fill="#D3603A"/>
<path d="M16.8629 54.3164L15.6441 51.4688H13.6812L15.7672 55.6582L13.6344 60H15.5621L16.775 57.0879L17.9879 60H19.9566L17.859 55.6934L19.9156 51.4688H18.023L16.8629 54.3164Z" fill="#D3603A"/>
<path d="M21.1578 58.5176C20.9859 58.6895 20.9 58.9043 20.9 59.1621C20.9 59.4199 20.9859 59.6348 21.1578 59.8066C21.3297 59.9785 21.5621 60.0645 21.8551 60.0645C22.148 60.0645 22.3805 59.9785 22.5523 59.8066C22.7242 59.6348 22.8102 59.4199 22.8102 59.1621C22.8102 58.9043 22.7242 58.6895 22.5523 58.5176C22.3805 58.3418 22.148 58.2539 21.8551 58.2539C21.5621 58.2539 21.3297 58.3418 21.1578 58.5176Z" fill="#D3603A"/>
<path d="M25.393 56.1328L24.0805 55.8047L24.5082 51.4688H28.6273V52.875H25.8559L25.6976 54.709C25.7875 54.6465 25.9203 54.5781 26.0961 54.5039C26.2758 54.4297 26.475 54.3926 26.6937 54.3926C27.0453 54.3926 27.3578 54.457 27.6312 54.5859C27.9047 54.7148 28.1352 54.9023 28.3227 55.1484C28.5102 55.3945 28.6527 55.6953 28.7504 56.0508C28.848 56.4062 28.8969 56.8086 28.8969 57.2578C28.8969 57.6367 28.8441 57.998 28.7387 58.3418C28.6371 58.6855 28.4828 58.9902 28.2758 59.2559C28.0687 59.5215 27.809 59.7324 27.4965 59.8887C27.184 60.041 26.8187 60.1172 26.4008 60.1172C26.0844 60.1172 25.7777 60.0625 25.4809 59.9531C25.1879 59.8438 24.9242 59.6816 24.6898 59.4668C24.4555 59.248 24.268 58.9863 24.1273 58.6816C23.9867 58.373 23.9164 58.0215 23.9164 57.627H25.5394C25.5551 57.8574 25.6 58.0586 25.6742 58.2305C25.7523 58.3984 25.85 58.5273 25.9672 58.6172C26.0883 58.707 26.2289 58.752 26.3891 58.752C26.5453 58.752 26.6801 58.7129 26.7934 58.6348C26.9066 58.5527 26.9965 58.4395 27.0629 58.2949C27.1293 58.1504 27.1781 57.9824 27.2094 57.791C27.2406 57.5957 27.2562 57.3867 27.2562 57.1641C27.2562 56.9375 27.2348 56.7324 27.1918 56.5488C27.1527 56.3652 27.0902 56.209 27.0043 56.0801C26.9223 55.9473 26.8168 55.8457 26.6879 55.7754C26.559 55.7012 26.4066 55.6641 26.2309 55.6641C25.9926 55.6641 25.8129 55.7148 25.6918 55.8164C25.5746 55.9141 25.475 56.0195 25.393 56.1328Z" fill="#D3603A"/>
<path fill-rule="evenodd" clip-rule="evenodd" d="M15.7358 42.2159C16.3374 42.2159 16.8249 41.7284 16.8249 41.1268C16.8249 39.3545 16.8853 37.68 17.0042 36.1388C19.4729 35.1028 21.5592 33.621 22.9142 31.9406C25.0969 29.2339 25.0179 26.3076 22.2132 24.905C19.4057 23.5016 17.2613 25.1931 16.0617 28.8774C15.56 30.4184 15.1924 32.354 14.958 34.5829C14.2633 34.8156 13.5409 35.0096 12.7995 35.1578C12.2097 35.2756 11.827 35.8496 11.9451 36.4394C12.0631 37.0292 12.6368 37.4117 13.2266 37.2938C13.7485 37.1894 14.2626 37.0646 14.7667 36.9214C14.6866 38.2502 14.6468 39.6578 14.6468 41.1268C14.6468 41.7284 15.1343 42.2159 15.7358 42.2159ZM21.2389 26.8534C22.593 27.5304 22.628 28.8254 21.2186 30.5731C20.2954 31.718 18.9199 32.7777 17.2672 33.6183C17.4806 32.0406 17.7698 30.6669 18.1329 29.552C18.9777 26.957 19.9351 26.2015 21.2389 26.8534Z" fill="#D3603A"/>
<path fill-rule="evenodd" clip-rule="evenodd" d="M42.5127 16.0746L32.7105 25.8767C32.3018 26.2852 32.0727 26.8394 32.0727 27.4171V30.2333C32.0727 30.8349 32.5602 31.3224 33.1618 31.3224H35.978C36.5556 31.3224 37.1098 31.093 37.5183 30.6845L47.3204 20.8824C48.1711 20.0317 48.1711 18.6524 47.3204 17.8017L45.5933 16.0746C44.7426 15.2239 43.3633 15.2239 42.5127 16.0746ZM42.5125 22.6094L35.9777 29.1442H34.2508V27.417L40.7856 20.8822L42.5125 22.6094ZM44.0527 17.6149L45.7799 19.342L44.0527 21.0692L42.3256 19.342L44.0527 17.6149Z" fill="#D3603A"/>
<path d="M21.5534 37.5902C22.0061 37.9863 22.6941 37.9406 23.0902 37.4879L25.3028 34.9589L25.4032 35.762C25.5152 36.6574 26.3317 37.2925 27.2271 37.1805C27.6024 37.1335 27.95 36.9578 28.2102 36.6831L29.2236 35.6136L29.8694 36.5342C30.2688 37.104 30.9851 37.3581 31.654 37.1675L35.6382 36.0335C36.2167 35.8687 36.5521 35.2663 36.3873 34.6878C36.2228 34.1093 35.6203 33.7738 35.0416 33.9384L31.4303 34.9665L30.6241 33.817C30.5614 33.7275 30.4897 33.6444 30.4102 33.5692C29.7552 32.9487 28.7213 32.9766 28.1008 33.6317L27.4217 34.3481L27.3137 33.4838C27.264 33.0863 27.0701 32.7208 26.7685 32.457C26.0894 31.863 25.0573 31.9318 24.4633 32.6107L21.4509 36.0535C21.0548 36.5062 21.1007 37.1941 21.5534 37.5902Z" fill="#D3603A"/>
</svg>
